<svg width="1440" height="1755" viewBox="0 0 1440 1755" fill="none" xmlns="http://www.w3.org/2000/svg">
<path d="M1611 128.14C1611 208.398 1525.36 275 1297.91 275C1070.46 275 836.5 312.757 836.5 232.5C836.5 152.243 1051.22 -31.3555 1297.91 5.01265C1605.84 39.3775 1611 47.8833 1611 128.14Z" fill="#80CEE1"/>
<path d="M1713.5 613.21C1713.5 873.612 1589.04 1089.71 1258.5 1089.71C927.957 1089.71 641 718.612 641 458.21C641 197.808 900 95.7101 1258.5 213.71C1706 325.21 1713.5 352.808 1713.5 613.21Z" fill="#9FE855"/>
<path d="M-286.137 1625.66C-438.741 1573.57 -497.515 1479.96 -359.231 1074.83C-220.947 669.707 -34.4483 412.962 269.181 444.321C421.785 496.41 470.371 947.47 180.787 1310.68C-27.8665 1591.07 -112.971 1595.55 -286.137 1625.66Z" fill="#DFD880"/>
</svg>
