<svg id="visual" viewBox="0 0 1200 600" width="1200" height="600" xmlns="http://www.w3.org/2000/svg" xmlns:xlink="http://www.w3.org/1999/xlink" version="1.1"><rect x="0" y="0" width="1200" height="600" fill="#e3f2f7"></rect><path d="M0 288L40 268.5C80 249 160 210 240 201.5C320 193 400 215 480 234.2C560 253.3 640 269.7 720 280.5C800 291.3 880 296.7 960 297.7C1040 298.7 1120 295.3 1160 293.7L1200 292L1200 0L1160 0C1120 0 1040 0 960 0C880 0 800 0 720 0C640 0 560 0 480 0C400 0 320 0 240 0C160 0 80 0 40 0L0 0Z" fill="#fff" stroke-linecap="round" stroke-linejoin="miter"></path></svg>