<svg width="26" height="25" viewBox="0 0 26 25" fill="none" xmlns="http://www.w3.org/2000/svg">
<path d="M23.1747 0H3.53184C2.82144 0 2.14014 0.282206 1.63781 0.784535C1.13548 1.28687 0.853271 1.96817 0.853271 2.67857L0.853271 22.3214C0.853271 23.0318 1.13548 23.7131 1.63781 24.2155C2.14014 24.7178 2.82144 25 3.53184 25H11.1909V16.5006H7.67526V12.5H11.1909V9.45089C11.1909 5.9827 13.2556 4.06696 16.418 4.06696C17.9325 4.06696 19.5162 4.33705 19.5162 4.33705V7.74107H17.7712C16.0519 7.74107 15.5157 8.80804 15.5157 9.90234V12.5H19.3538L18.74 16.5006H15.5157V25H23.1747C23.8851 25 24.5664 24.7178 25.0687 24.2155C25.5711 23.7131 25.8533 23.0318 25.8533 22.3214V2.67857C25.8533 1.96817 25.5711 1.28687 25.0687 0.784535C24.5664 0.282206 23.8851 0 23.1747 0Z" fill="#6B6B6B"/>
</svg>
