<svg width="26" height="25" viewBox="0 0 26 25" fill="none" xmlns="http://www.w3.org/2000/svg">
<path d="M13.3561 6.09032C9.80893 6.09032 6.94781 8.95208 6.94781 12.5C6.94781 16.0479 9.80893 18.9097 13.3561 18.9097C16.9032 18.9097 19.7643 16.0479 19.7643 12.5C19.7643 8.95208 16.9032 6.09032 13.3561 6.09032ZM13.3561 16.6671C11.0638 16.6671 9.18986 14.7983 9.18986 12.5C9.18986 10.2017 11.0582 8.33287 13.3561 8.33287C15.6539 8.33287 17.5223 10.2017 17.5223 12.5C17.5223 14.7983 15.6483 16.6671 13.3561 16.6671ZM21.5211 5.82813C21.5211 6.65932 20.8519 7.32316 20.0264 7.32316C19.1954 7.32316 18.5317 6.65374 18.5317 5.82813C18.5317 5.00251 19.201 4.33309 20.0264 4.33309C20.8519 4.33309 21.5211 5.00251 21.5211 5.82813ZM25.7654 7.34548C25.6706 5.3428 25.2133 3.56884 23.7465 2.10727C22.2852 0.64571 20.5117 0.188274 18.5094 0.0878612C16.4459 -0.0292871 10.2607 -0.0292871 8.19711 0.0878612C6.20046 0.182696 4.42689 0.640132 2.96008 2.1017C1.49326 3.56326 1.0415 5.33722 0.941113 7.3399C0.823991 9.40394 0.823991 15.5905 0.941113 17.6545C1.03593 19.6572 1.49326 21.4312 2.96008 22.8927C4.42689 24.3543 6.19488 24.8117 8.19711 24.9121C10.2607 25.0293 16.4459 25.0293 18.5094 24.9121C20.5117 24.8173 22.2852 24.3599 23.7465 22.8927C25.2077 21.4312 25.665 19.6572 25.7654 17.6545C25.8826 15.5905 25.8826 9.40952 25.7654 7.34548ZM23.0995 19.8692C22.6645 20.9626 21.8223 21.8049 20.7236 22.2456C19.0783 22.8983 15.1742 22.7477 13.3561 22.7477C11.5379 22.7477 7.62823 22.8927 5.98852 22.2456C4.89538 21.8105 4.05322 20.9681 3.61261 19.8692C2.96008 18.2235 3.11066 14.3186 3.11066 12.5C3.11066 10.6814 2.96565 6.77089 3.61261 5.13082C4.04764 4.03743 4.8898 3.19508 5.98852 2.75438C7.63381 2.1017 11.5379 2.25232 13.3561 2.25232C15.1742 2.25232 19.0839 2.10727 20.7236 2.75438C21.8167 3.1895 22.6589 4.03185 23.0995 5.13082C23.752 6.77647 23.6015 10.6814 23.6015 12.5C23.6015 14.3186 23.752 18.2291 23.0995 19.8692Z" fill="#fff"/>
</svg>
