<svg width="34" height="35" viewBox="0 0 34 35" fill="none" xmlns="http://www.w3.org/2000/svg">
<path d="M1 7.32081V5.94478C1 1.75262 4.12012 -0.151473 7.94427 1.7206L15.0485 5.20875C16.5846 5.96078 17.8487 7.96084 17.8487 9.6569V33.0018H4.37613C2.52006 33.0018 1 31.5137 1 29.6897V13.8331" stroke="white" stroke-width="2" stroke-linecap="round" stroke-linejoin="round"/>
<path d="M33 21.8971V27.9453C33 31.4014 31.3999 33.0015 27.9438 33.0015H17.8474V14.4728L18.5994 14.6328L25.7997 16.2488L29.0478 16.9689C31.1599 17.4329 32.888 18.5209 32.984 21.5931C33 21.6891 33 21.7851 33 21.8971Z" stroke="white" stroke-width="2" stroke-linecap="round" stroke-linejoin="round"/>
<path d="M6.64697 12.2008H12.1992" stroke="white" stroke-width="2" stroke-linecap="round" stroke-linejoin="round"/>
<path d="M6.64697 18.601H12.1992" stroke="white" stroke-width="2" stroke-linecap="round" stroke-linejoin="round"/>
<path d="M25.8006 16.249V21.4012C25.8006 23.3852 24.1846 25.0013 22.2005 25.0013C20.2164 25.0013 18.6003 23.3852 18.6003 21.4012V14.6329L25.8006 16.249Z" stroke="white" stroke-width="2" stroke-linecap="round" stroke-linejoin="round"/>
<path d="M32.9853 21.5932C32.8893 23.4813 31.3212 25.0013 29.4012 25.0013C27.4171 25.0013 25.801 23.3853 25.801 21.4012V16.249L29.0492 16.969C31.1612 17.4331 32.8893 18.5211 32.9853 21.5932Z" stroke="white" stroke-width="2" stroke-linecap="round" stroke-linejoin="round"/>
</svg>
