<svg width="32" height="32" viewBox="0 0 32 32" fill="none" xmlns="http://www.w3.org/2000/svg">
<mask id="path-1-inside-1_54_682" fill="white">
<path d="M24.1566 32C22.4716 32 20.6971 31.5982 18.863 30.8242C17.0736 30.0651 15.2693 29.0233 13.5098 27.7582C11.7651 26.4782 10.0801 25.0493 8.48462 23.4865C6.90401 21.894 5.47251 20.2121 4.20503 18.4856C2.92265 16.6996 1.89376 14.9135 1.16309 13.187C0.387698 11.3414 0 9.55536 0 7.8735C0 6.71257 0.20876 5.61118 0.61137 4.5842C1.02889 3.52746 1.69991 2.54513 2.60951 1.69676C3.75769 0.565597 5.0699 1.52588e-05 6.47158 1.52588e-05C7.05312 1.52588e-05 7.64958 0.133969 8.15657 0.372108C8.73812 0.640015 9.2302 1.04188 9.58807 1.57769L13.0475 6.44467C13.3607 6.87629 13.5993 7.29304 13.7633 7.70978C13.9571 8.15629 14.0615 8.60281 14.0615 9.03443C14.0615 9.60002 13.8975 10.1507 13.5843 10.6716C13.3607 11.0735 13.0177 11.5051 12.5853 11.9368L11.5713 12.9935C11.5862 13.0382 11.6011 13.0679 11.616 13.0977C11.795 13.4102 12.1528 13.9461 12.8388 14.7498C13.5694 15.5833 14.2554 16.3423 14.9413 17.0419C15.8211 17.9051 16.5517 18.5898 17.2377 19.1554C18.0876 19.8698 18.6393 20.227 18.9674 20.3907L18.9376 20.4651L20.0261 19.3935C20.4884 18.9321 20.9357 18.5898 21.3681 18.3665C22.1883 17.8605 23.2321 17.7712 24.2759 18.2028C24.6636 18.3665 25.0811 18.5898 25.5284 18.9023L30.479 22.4149C31.0308 22.787 31.4334 23.2633 31.6719 23.8289C31.8956 24.3944 32 24.9154 32 25.4363C32 26.1507 31.836 26.8651 31.5228 27.5349C31.2097 28.2047 30.822 28.7851 30.3299 29.3209C29.48 30.2586 28.5555 30.9284 27.4818 31.36C26.4529 31.7768 25.3346 32 24.1566 32ZM6.47158 2.23257C5.65144 2.23257 4.89096 2.58978 4.1603 3.3042C3.47437 3.9442 2.9972 4.64374 2.69897 5.40281C2.38583 6.17676 2.23672 6.99536 2.23672 7.8735C2.23672 9.25769 2.56477 10.7609 3.22088 12.3089C3.89189 13.8865 4.83131 15.5237 6.02423 17.1609C7.21715 18.7982 8.57409 20.3907 10.0652 21.894C11.5564 23.3675 13.1668 24.7368 14.822 25.9423C16.4324 27.1182 18.0876 28.0707 19.7279 28.7554C22.2777 29.8419 24.6636 30.0949 26.6319 29.2763C27.3924 28.9637 28.0634 28.4875 28.6747 27.8028C29.0177 27.4307 29.2861 27.0289 29.5098 26.5526C29.6887 26.1805 29.7782 25.7935 29.7782 25.4065C29.7782 25.1684 29.7335 24.9302 29.6142 24.6623C29.5694 24.573 29.48 24.4093 29.1966 24.2158L24.246 20.7033C23.9478 20.4949 23.6794 20.3461 23.4259 20.2419C23.0979 20.1079 22.9637 19.974 22.4567 20.2865C22.1584 20.4354 21.89 20.6586 21.5918 20.9563L20.4585 22.0726C19.877 22.6382 18.9823 22.7721 18.2964 22.5191L17.8938 22.3405C17.2824 22.013 16.5666 21.507 15.7763 20.8372C15.0606 20.227 14.2852 19.5126 13.3458 18.5898C12.6151 17.8456 11.8844 17.0568 11.124 16.1786C10.4231 15.36 9.91612 14.6605 9.60298 14.08L9.42405 13.6335C9.33458 13.2912 9.30475 13.0977 9.30475 12.8893C9.30475 12.3535 9.4986 11.8772 9.87139 11.5051L10.9897 10.3442C11.288 10.0465 11.5116 9.76374 11.6608 9.51071C11.7801 9.31722 11.8248 9.1535 11.8248 9.00467C11.8248 8.8856 11.7801 8.70699 11.7055 8.52839C11.6011 8.29025 11.4371 8.02234 11.2283 7.73955L7.76887 2.85769C7.61976 2.64932 7.44082 2.50048 7.21715 2.39629C6.97857 2.29211 6.72507 2.23257 6.47158 2.23257ZM18.9376 20.48L18.699 21.4921L19.1016 20.4502C19.027 20.4354 18.9674 20.4502 18.9376 20.48Z"/>
</mask>
<path d="M18.863 30.8242L16.5199 36.3478L16.5303 36.3522L18.863 30.8242ZM13.5098 27.7582L9.96053 32.5958L9.98377 32.6128L10.0072 32.6297L13.5098 27.7582ZM8.48462 23.4865L4.22604 27.7132L4.2559 27.7433L4.28618 27.7729L8.48462 23.4865ZM4.20503 18.4856L-0.668785 21.985L-0.650314 22.0107L-0.631572 22.0363L4.20503 18.4856ZM1.16309 13.187L-4.36853 15.511L-4.36551 15.5182L-4.36246 15.5254L1.16309 13.187ZM0.61137 4.5842L-4.96887 2.37944L-4.97179 2.38685L-4.9747 2.39427L0.61137 4.5842ZM2.60951 1.69676L6.7019 6.0845L6.7619 6.02854L6.82035 5.97096L2.60951 1.69676ZM8.15657 0.372108L5.60568 5.80285L5.62585 5.81232L5.64608 5.82164L8.15657 0.372108ZM9.58807 1.57769L4.59863 4.91018L4.64708 4.98273L4.69763 5.05383L9.58807 1.57769ZM13.0475 6.44467L8.15709 9.92081L8.17393 9.9445L8.19099 9.96802L13.0475 6.44467ZM13.7633 7.70978L8.18016 9.90724L8.2182 10.0039L8.25957 10.0992L13.7633 7.70978ZM13.5843 10.6716L8.44192 7.58044L8.39037 7.6662L8.34171 7.75364L13.5843 10.6716ZM12.5853 11.9368L8.34659 7.69017L8.30076 7.73591L8.25594 7.78262L12.5853 11.9368ZM11.5713 12.9935L7.24196 8.83937L4.73188 11.4553L5.88026 14.8941L11.5713 12.9935ZM11.616 13.0977L6.25147 15.785L6.32613 15.934L6.40896 16.0787L11.616 13.0977ZM12.8388 14.7498L8.27489 18.6448L8.30072 18.6751L8.32696 18.705L12.8388 14.7498ZM14.9413 17.0419L10.6572 21.2426L10.6977 21.284L10.739 21.3245L14.9413 17.0419ZM17.2377 19.1554L21.0983 14.5624L21.0766 14.5441L21.0547 14.5261L17.2377 19.1554ZM18.9674 20.3907L24.5368 22.6227L26.5934 17.4909L21.6467 15.0222L18.9674 20.3907ZM18.9376 20.4651L13.3681 18.2332L23.1469 24.7409L18.9376 20.4651ZM20.0261 19.3935L24.2354 23.6692L24.2501 23.6547L24.2648 23.6401L20.0261 19.3935ZM21.3681 18.3665L24.1206 23.6979L24.324 23.5929L24.5188 23.4727L21.3681 18.3665ZM24.2759 18.2028L26.61 12.6754L26.5894 12.6667L26.5687 12.6582L24.2759 18.2028ZM25.5284 18.9023L29.0004 14.0089L28.9827 13.9964L28.9649 13.9839L25.5284 18.9023ZM30.479 22.4149L27.0071 27.3083L27.0651 27.3495L27.1242 27.3893L30.479 22.4149ZM31.6719 23.8289L37.2515 21.6223L37.2266 21.5593L37.2002 21.4968L31.6719 23.8289ZM30.3299 29.3209L25.9108 25.2625L25.8975 25.2769L25.8844 25.2913L30.3299 29.3209ZM27.4818 31.36L25.2438 25.7931L25.2365 25.796L25.2293 25.7989L27.4818 31.36ZM4.1603 3.3042L8.25353 7.69117L8.30482 7.64331L8.35499 7.59426L4.1603 3.3042ZM2.69897 5.40281L8.26097 7.65318L8.27234 7.62508L8.28343 7.59687L2.69897 5.40281ZM3.22088 12.3089L-2.30337 14.6504L-2.30047 14.6572L3.22088 12.3089ZM10.0652 21.894L5.80547 26.1194L5.8266 26.1407L5.84794 26.1618L10.0652 21.894ZM14.822 25.9423L18.36 21.0965L18.3545 21.0925L14.822 25.9423ZM19.7279 28.7554L22.0799 23.2356L22.0595 23.2269L22.039 23.2184L19.7279 28.7554ZM26.6319 29.2763L24.351 23.7267L24.3394 23.7315L24.3278 23.7363L26.6319 29.2763ZM28.6747 27.8028L24.2629 23.7364L24.2309 23.7712L24.1994 23.8064L28.6747 27.8028ZM29.5098 26.5526L24.1025 23.9523L24.0906 23.9771L24.0789 24.0021L29.5098 26.5526ZM29.6142 24.6623L35.0953 22.2217L35.0398 22.0971L34.9787 21.9751L29.6142 24.6623ZM29.1966 24.2158L25.7247 29.1092L25.7685 29.1403L25.8128 29.1706L29.1966 24.2158ZM24.246 20.7033L27.718 15.8099L27.7003 15.7973L27.6825 15.7849L24.246 20.7033ZM23.4259 20.2419L25.7068 14.6923L25.6941 14.6871L23.4259 20.2419ZM22.4567 20.2865L25.1359 25.6551L25.3765 25.535L25.6054 25.3939L22.4567 20.2865ZM21.5918 20.9563L25.8023 25.2309L25.8164 25.2169L25.8305 25.2029L21.5918 20.9563ZM20.4585 22.0726L24.6417 26.3738L24.6554 26.3605L24.669 26.3471L20.4585 22.0726ZM18.2964 22.5191L15.8633 28.0036L16.0393 28.0817L16.2199 28.1483L18.2964 22.5191ZM17.8938 22.3405L15.061 27.6296L15.2572 27.7348L15.4607 27.825L17.8938 22.3405ZM15.7763 20.8372L11.8836 25.403L11.8904 25.4088L11.8971 25.4146L15.7763 20.8372ZM13.3458 18.5898L9.06439 22.7933L9.10244 22.8321L9.14118 22.8701L13.3458 18.5898ZM11.124 16.1786L6.56615 20.0807L6.57722 20.0937L6.58836 20.1065L11.124 16.1786ZM9.60298 14.08L4.03355 16.3119L4.16043 16.6285L4.32237 16.9287L9.60298 14.08ZM9.42405 13.6335L3.61903 15.1507L3.71437 15.5155L3.85462 15.8654L9.42405 13.6335ZM9.87139 11.5051L14.1101 15.7517L14.1517 15.7102L14.1925 15.6678L9.87139 11.5051ZM10.9897 10.3442L6.75106 6.09761L6.70943 6.13916L6.66862 6.18153L10.9897 10.3442ZM11.6608 9.51071L6.55343 6.36188L6.52202 6.41282L6.49164 6.46438L11.6608 9.51071ZM11.7055 8.52839L17.2424 6.21703L17.222 6.16819L17.2008 6.11971L11.7055 8.52839ZM11.2283 7.73955L6.33288 11.2086L6.36657 11.2562L6.40116 11.303L11.2283 7.73955ZM7.76887 2.85769L12.6643 -0.611399L12.6563 -0.622738L12.6482 -0.63404L7.76887 2.85769ZM7.21715 2.39629L9.75058 -3.04261L9.6848 -3.07325L9.6183 -3.10229L7.21715 2.39629ZM18.9376 20.48L14.6989 16.2334L13.4896 17.4404L13.0976 19.1034L18.9376 20.48ZM18.699 21.4921L12.859 20.1154L24.2956 23.6548L18.699 21.4921ZM19.1016 20.4502L24.6982 22.613L27.2683 15.9622L20.2762 14.5663L19.1016 20.4502ZM24.1566 26C23.4277 26 22.449 25.8251 21.1957 25.2962L16.5303 36.3522C18.9452 37.3712 21.5154 38 24.1566 38V26ZM21.2061 25.3006C19.8885 24.7417 18.4702 23.9348 17.0124 22.8866L10.0072 32.6297C12.0684 34.1117 14.2587 35.3886 16.5199 36.3478L21.2061 25.3006ZM17.059 22.9205C15.545 21.8097 14.0768 20.5653 12.6831 19.2001L4.28618 27.7729C6.08353 29.5334 7.98531 31.1466 9.96053 32.5958L17.059 22.9205ZM12.7432 19.2599C11.3734 17.8797 10.1348 16.424 9.04164 14.9349L-0.631572 22.0363C0.810199 24.0002 2.43465 25.9082 4.22604 27.7132L12.7432 19.2599ZM9.07885 14.9862C8.00703 13.4934 7.21583 12.0943 6.68865 10.8486L-4.36246 15.5254C-3.42831 17.7328 -2.16173 19.9057 -0.668785 21.985L9.07885 14.9862ZM6.69472 10.863C6.17525 9.62653 6 8.63046 6 7.8735H-6C-6 10.4803 -5.39985 13.0563 -4.36853 15.511L6.69472 10.863ZM6 7.8735C6 7.44439 6.07472 7.08718 6.19744 6.77413L-4.9747 2.39427C-5.65719 4.13517 -6 5.98076 -6 7.8735H6ZM6.19161 6.78896C6.26496 6.60331 6.41048 6.35631 6.7019 6.0845L-1.48289 -2.69098C-3.01067 -1.26604 -4.20718 0.451606 -4.96887 2.37944L6.19161 6.78896ZM6.82035 5.97096C6.93414 5.85886 6.95013 5.87754 6.84913 5.9217C6.80103 5.94273 6.73881 5.96388 6.66642 5.97902C6.59402 5.99416 6.52708 6.00002 6.47158 6.00002V-5.99998C3.29911 -5.99998 0.522366 -4.66966 -1.60134 -2.57744L6.82035 5.97096ZM6.47158 6.00002C6.3079 6.00002 6.1668 5.98191 6.04276 5.95439C5.91942 5.92704 5.77328 5.88158 5.60568 5.80285L10.7075 -5.05863C9.39281 -5.67614 7.92433 -5.99998 6.47158 -5.99998V6.00002ZM5.64608 5.82164C5.30418 5.66414 4.90438 5.36794 4.59863 4.91018L14.5775 -1.7548C13.556 -3.28419 12.1721 -4.3841 10.6671 -5.07743L5.64608 5.82164ZM4.69763 5.05383L8.15709 9.92081L17.938 2.96853L14.4785 -1.89845L4.69763 5.05383ZM8.19099 9.96802C8.23472 10.0283 8.24795 10.0528 8.24289 10.0439C8.23729 10.034 8.21181 9.98764 8.18016 9.90724L19.3464 5.51233C18.9558 4.51999 18.44 3.66008 17.9041 2.92131L8.19099 9.96802ZM8.25957 10.0992C8.18972 9.93827 8.06151 9.57093 8.06151 9.03443H20.0615C20.0615 7.63468 19.7245 6.37432 19.267 5.3204L8.25957 10.0992ZM8.06151 9.03443C8.06151 8.39396 8.2574 7.88741 8.44192 7.58044L18.7268 13.7628C19.5376 12.414 20.0615 10.8061 20.0615 9.03443H8.06151ZM8.34171 7.75364C8.37999 7.68485 8.41097 7.63696 8.42942 7.60976C8.4481 7.58222 8.45832 7.56946 8.45717 7.57091C8.45618 7.57215 8.44687 7.58381 8.42765 7.60521C8.40856 7.62648 8.38179 7.65503 8.34659 7.69017L16.824 16.1833C17.515 15.4936 18.2521 14.6225 18.827 13.5896L8.34171 7.75364ZM8.25594 7.78262L7.24196 8.83937L15.9006 17.1476L16.9146 16.0909L8.25594 7.78262ZM5.88026 14.8941C6.03848 15.3678 6.21749 15.7172 6.25147 15.785L16.9806 10.4104C16.9674 10.3841 17.019 10.4851 17.0749 10.6106C17.1391 10.7548 17.2034 10.9165 17.2623 11.093L5.88026 14.8941ZM6.40896 16.0787C6.81963 16.796 7.41559 17.6379 8.27489 18.6448L17.4026 10.8548C16.8901 10.2542 16.7703 10.0245 16.8231 10.1167L6.40896 16.0787ZM8.32696 18.705C9.08817 19.5733 9.85784 20.4274 10.6572 21.2426L19.2254 12.8411C18.6529 12.2572 18.0507 11.5932 17.3506 10.7946L8.32696 18.705ZM10.739 21.3245C11.6537 22.222 12.5314 23.0514 13.4206 23.7846L21.0547 14.5261C20.5721 14.1281 19.9884 13.5882 19.1435 12.7592L10.739 21.3245ZM13.377 23.7484C14.3922 24.6016 15.3565 25.2943 16.2881 25.7593L21.6467 15.0222C21.8168 15.107 21.8536 15.1442 21.7325 15.0596C21.6222 14.9826 21.4149 14.8285 21.0983 14.5624L13.377 23.7484ZM13.398 18.1588L13.3681 18.2332L24.507 22.6971L24.5368 22.6227L13.398 18.1588ZM23.1469 24.7409L24.2354 23.6692L15.8168 15.1178L14.7283 16.1894L23.1469 24.7409ZM24.2648 23.6401C24.3386 23.5664 24.3693 23.5444 24.3546 23.5556C24.3403 23.5666 24.2629 23.6245 24.1206 23.6979L18.6156 13.0351C17.4839 13.6194 16.5471 14.3887 15.7874 15.1469L24.2648 23.6401ZM24.5188 23.4727C23.5764 24.0542 22.5804 23.9945 21.9831 23.7475L26.5687 12.6582C23.8837 11.5479 20.8001 11.6667 18.2174 13.2603L24.5188 23.4727ZM21.9417 23.7302C21.9449 23.7315 21.9566 23.7366 21.978 23.7484C21.9998 23.7604 22.0377 23.7828 22.092 23.8207L28.9649 13.9839C28.173 13.4307 27.3861 13.0032 26.61 12.6754L21.9417 23.7302ZM22.0565 23.7957L27.0071 27.3083L33.951 17.5215L29.0004 14.0089L22.0565 23.7957ZM27.1242 27.3893C26.8003 27.1709 26.3982 26.7642 26.1437 26.1609L37.2002 21.4968C36.4685 19.7623 35.2612 18.4031 33.8339 17.4405L27.1242 27.3893ZM26.0924 26.0354C26.0893 26.0276 26.0637 25.9605 26.04 25.844C26.0155 25.7236 26 25.584 26 25.4363H38C38 24.0642 37.7154 22.7954 37.2515 21.6223L26.0924 26.0354ZM26 25.4363C26 25.2285 26.0479 25.0786 26.0875 24.9937L36.9581 30.0761C37.6241 28.6517 38 27.0729 38 25.4363H26ZM26.0875 24.9937C26.0294 25.118 25.9819 25.185 25.9108 25.2625L34.7491 33.3794C35.6621 32.3852 36.39 31.2913 36.9581 30.0761L26.0875 24.9937ZM25.8844 25.2913C25.5627 25.6463 25.3686 25.7429 25.2438 25.7931L29.7199 36.927C31.7423 36.1139 33.3972 34.8709 34.7754 33.3505L25.8844 25.2913ZM25.2293 25.7989C24.9201 25.9241 24.5669 26 24.1566 26V38C26.1022 38 27.9857 37.6294 29.7343 36.9212L25.2293 25.7989ZM6.47158 -3.76743C3.69108 -3.76743 1.50143 -2.48754 -0.034389 -0.985857L8.35499 7.59426C8.33944 7.60946 8.16489 7.77702 7.81293 7.94073C7.4347 8.11667 6.96871 8.23257 6.47158 8.23257V-3.76743ZM0.0670683 -1.08276C-1.22027 0.118376 -2.23444 1.55169 -2.88548 3.20874L8.28343 7.59687C8.27329 7.62267 8.26158 7.64798 8.24897 7.67159C8.23637 7.69517 8.22484 7.71337 8.21632 7.72568C8.19802 7.75209 8.20217 7.73909 8.25353 7.69117L0.0670683 -1.08276ZM-2.86302 3.15243C-3.49076 4.70393 -3.76328 6.29453 -3.76328 7.8735H8.23672C8.23672 7.7758 8.24484 7.71997 8.24939 7.6955C8.25366 7.67252 8.25764 7.66142 8.26097 7.65318L-2.86302 3.15243ZM-3.76328 7.8735C-3.76328 10.1953 -3.21696 12.495 -2.30336 14.6504L8.74512 9.96732C8.34651 9.02691 8.23672 8.32011 8.23672 7.8735H-3.76328ZM-2.30047 14.6572C-1.42904 16.7061 -0.250812 18.7375 1.17494 20.6943L10.8735 13.6276C9.91344 12.31 9.21283 11.067 8.74223 9.96051L-2.30047 14.6572ZM1.17494 20.6943C2.5509 22.5827 4.10582 24.406 5.80547 26.1194L14.325 17.6685C13.0424 16.3755 11.8834 15.0136 10.8735 13.6276L1.17494 20.6943ZM5.84794 26.1618C7.54948 27.8432 9.38844 29.4076 11.2895 30.7922L18.3545 21.0925C16.9452 20.066 15.5633 18.8917 14.2825 17.6261L5.84794 26.1618ZM11.2839 30.7882C13.221 32.2025 15.2844 33.4023 17.4167 34.2924L22.039 23.2184C20.8908 22.7391 19.6438 22.0338 18.36 21.0965L11.2839 30.7882ZM17.3758 34.2751C20.7245 35.702 24.9044 36.4929 28.9359 34.8163L24.3278 23.7363C24.4227 23.6969 23.831 23.9817 22.0799 23.2356L17.3758 34.2751ZM28.9127 34.8259C30.5657 34.1465 31.9735 33.1169 33.1501 31.7992L24.1994 23.8064C24.1624 23.8478 24.1646 23.8377 24.2084 23.8063C24.2288 23.7916 24.2532 23.776 24.2803 23.761C24.3073 23.746 24.3317 23.7347 24.351 23.7267L28.9127 34.8259ZM33.0866 31.8692C33.8609 31.0291 34.4671 30.1115 34.9407 29.1031L24.0789 24.0021C24.0852 23.9887 24.1073 23.9445 24.1476 23.8843C24.1884 23.8231 24.23 23.7721 24.2629 23.7364L33.0866 31.8692ZM34.917 29.1529C35.4674 28.0084 35.7782 26.736 35.7782 25.4065H23.7782C23.7782 24.851 23.9101 24.3525 24.1025 23.9523L34.917 29.1529ZM35.7782 25.4065C35.7782 24.328 35.5569 23.2583 35.0953 22.2217L24.133 27.103C24.0345 26.8819 23.9392 26.6093 23.872 26.2928C23.8042 25.9741 23.7782 25.6732 23.7782 25.4065H35.7782ZM34.9787 21.9751C34.5732 21.1655 33.8668 20.1396 32.5805 19.261L25.8128 29.1706C25.5382 28.9831 25.2055 28.7043 24.8798 28.3124C24.5338 27.8959 24.3303 27.5108 24.2496 27.3496L34.9787 21.9751ZM32.6686 19.3224L27.718 15.8099L20.7741 25.5967L25.7247 29.1092L32.6686 19.3224ZM27.6825 15.7849C27.0999 15.3778 26.4455 14.9959 25.7068 14.6923L21.145 25.7914C20.9133 25.6962 20.7957 25.612 20.8096 25.6217L27.6825 15.7849ZM25.6941 14.6871C25.7401 14.7059 25.7752 14.7217 25.7283 14.7011C25.7095 14.6928 25.5762 14.6334 25.4254 14.5734C25.0995 14.4437 24.4066 14.1903 23.4924 14.1163C21.479 13.9534 19.9864 14.7609 19.308 15.1791L25.6054 25.3939C25.434 25.4996 24.2619 26.2178 22.5244 26.0772C21.7481 26.0144 21.182 25.8 20.9893 25.7234C20.9052 25.6899 20.8402 25.6605 20.8935 25.684C20.9187 25.6951 21.0297 25.7444 21.1577 25.7966L25.6941 14.6871ZM19.7774 14.918C18.6284 15.4914 17.8232 16.2405 17.3531 16.7097L25.8305 25.2029C25.8818 25.1517 25.8427 25.1956 25.7378 25.2783C25.6237 25.3682 25.421 25.5128 25.1359 25.6551L19.7774 14.918ZM17.3813 16.6817L16.2481 17.798L24.669 26.3471L25.8023 25.2309L17.3813 16.6817ZM16.2753 17.7713C16.9217 17.1427 17.66 16.8292 18.2973 16.7081C18.9176 16.5903 19.6321 16.6166 20.3729 16.8899L16.2199 28.1483C18.881 29.1299 22.2609 28.6893 24.6417 26.3738L16.2753 17.7713ZM20.7294 17.0345L20.3268 16.8559L15.4607 27.825L15.8633 28.0036L20.7294 17.0345ZM20.7266 17.0513C20.6137 16.9909 20.2538 16.767 19.6555 16.2599L11.8971 25.4146C12.8794 26.247 13.9511 27.0352 15.061 27.6296L20.7266 17.0513ZM19.669 16.2714C19.0868 15.775 18.4173 15.161 17.5503 14.3094L9.14118 22.8701C10.1531 23.8641 11.0343 24.679 11.8836 25.403L19.669 16.2714ZM17.6271 14.3862C16.9829 13.73 16.3371 13.0331 15.6595 12.2507L6.58836 20.1065C7.43181 21.0805 8.24734 21.9612 9.06439 22.7933L17.6271 14.3862ZM15.6818 12.2765C15.4121 11.9616 15.2151 11.7104 15.0763 11.519C14.9336 11.3221 14.8828 11.2298 14.8836 11.2313L4.32237 16.9287C4.92484 18.0455 5.73858 19.1141 6.56615 20.0807L15.6818 12.2765ZM15.1724 11.8481L14.9935 11.4016L3.85462 15.8654L4.03355 16.3119L15.1724 11.8481ZM15.2291 12.1163C15.2091 12.0402 15.232 12.1155 15.2564 12.2689C15.2697 12.3528 15.2828 12.4546 15.292 12.5702C15.3012 12.6867 15.3048 12.7945 15.3048 12.8893H3.30475C3.30475 13.8227 3.46814 14.5733 3.61903 15.1507L15.2291 12.1163ZM15.3048 12.8893C15.3048 13.902 14.8962 14.9671 14.1101 15.7517L5.6327 7.25854C4.10103 8.78736 3.30475 10.805 3.30475 12.8893H15.3048ZM14.1925 15.6678L15.3109 14.5069L6.66862 6.18153L5.55026 7.34246L14.1925 15.6678ZM15.2284 14.5908C15.788 14.0323 16.3605 13.3534 16.8299 12.557L6.49164 6.46438C6.58362 6.30831 6.66022 6.20713 6.69937 6.15829C6.7403 6.10722 6.76051 6.08817 6.75106 6.09761L15.2284 14.5908ZM16.7681 12.6595C17.3528 11.7112 17.8248 10.4711 17.8248 9.00467H5.82479C5.82479 7.83589 6.20732 6.92326 6.55343 6.36188L16.7681 12.6595ZM17.8248 9.00467C17.8248 7.74945 17.455 6.72622 17.2424 6.21703L6.16857 10.8397C6.10117 10.6783 6.03193 10.4824 5.97289 10.2466C5.92542 10.0571 5.82479 9.61082 5.82479 9.00467H17.8248ZM17.2008 6.11971C16.8562 5.33347 16.4201 4.66997 16.0555 4.17606L6.40116 11.303C6.41617 11.3234 6.40492 11.31 6.37647 11.2632C6.35033 11.2201 6.28582 11.1096 6.2102 10.9371L17.2008 6.11971ZM16.1238 4.27046L12.6643 -0.611399L2.87342 6.32678L6.33288 11.2086L16.1238 4.27046ZM12.6482 -0.63404C11.9125 -1.66208 10.9335 -2.49163 9.75058 -3.04261L4.68371 7.8352C4.35012 7.67981 4.00485 7.46867 3.67485 7.19307C3.34601 6.91843 3.08719 6.62561 2.88955 6.34942L12.6482 -0.63404ZM9.6183 -3.10229C8.73068 -3.48991 7.66193 -3.76743 6.47158 -3.76743V8.23257C5.78821 8.23257 5.22645 8.07412 4.81599 7.89488L9.6183 -3.10229ZM13.0976 19.1034L12.859 20.1154L24.5389 22.8688L24.7775 21.8567L13.0976 19.1034ZM24.2956 23.6548L24.6982 22.613L13.5049 18.2875L13.1023 19.3294L24.2956 23.6548ZM20.2762 14.5663C19.1733 14.3462 16.7102 14.2259 14.6989 16.2334L23.1762 24.7266C22.1514 25.7496 20.9938 26.1693 20.1774 26.3323C19.3215 26.5032 18.5487 26.4583 17.927 26.3342L20.2762 14.5663Z" fill="white" mask="url(#path-1-inside-1_54_682)"/>
</svg>
