<svg width="26" height="25" viewBox="0 0 26 25" fill="none" xmlns="http://www.w3.org/2000/svg">
<path d="M22.1089 3.63281C19.7707 1.28906 16.6568 0 13.3477 0C6.51733 0 0.959298 5.55804 0.959298 12.3884C0.959298 14.5703 1.52849 16.702 2.61108 18.5826L0.853271 25L7.42135 23.2757C9.22939 24.2634 11.2662 24.7824 13.3421 24.7824H13.3477C20.1725 24.7824 25.8533 19.2243 25.8533 12.394C25.8533 9.08482 24.447 5.97656 22.1089 3.63281ZM13.3477 22.6953C11.495 22.6953 9.6814 22.1987 8.10216 21.2612L7.72827 21.0379L3.83318 22.0592L4.87113 18.2589L4.62559 17.8683C3.59323 16.2277 3.05193 14.3359 3.05193 12.3884C3.05193 6.71317 7.67247 2.09263 13.3533 2.09263C16.1044 2.09263 18.6881 3.16406 20.6301 5.11161C22.572 7.05915 23.7662 9.64286 23.7606 12.394C23.7606 18.0748 19.0229 22.6953 13.3477 22.6953ZM18.995 14.9833C18.6881 14.827 17.1647 14.0792 16.8801 13.9788C16.5955 13.8728 16.389 13.8225 16.1825 14.135C15.976 14.4475 15.3845 15.1395 15.2004 15.3516C15.0218 15.558 14.8376 15.5859 14.5307 15.4297C12.7115 14.5201 11.5173 13.8058 10.3176 11.7467C9.99948 11.1998 10.6356 11.2388 11.2272 10.0558C11.3276 9.84933 11.2774 9.67076 11.1993 9.51451C11.1211 9.35826 10.5017 7.83482 10.245 7.2154C9.9939 6.61272 9.7372 6.69643 9.54747 6.68527C9.3689 6.67411 9.16242 6.67411 8.95595 6.67411C8.74948 6.67411 8.41466 6.75223 8.13006 7.05915C7.84546 7.37165 7.04747 8.11942 7.04747 9.64286C7.04747 11.1663 8.15796 12.6395 8.30863 12.846C8.46488 13.0525 10.4905 16.1775 13.5988 17.5223C15.5631 18.3705 16.3332 18.4431 17.3153 18.298C17.9124 18.2087 19.1457 17.5502 19.4024 16.8248C19.6591 16.0993 19.6591 15.4799 19.5809 15.3516C19.5084 15.2121 19.3019 15.1339 18.995 14.9833Z" fill="#6B6B6B"/>
</svg>
