<svg width="27" height="19" viewBox="0 0 27 19" fill="none" xmlns="http://www.w3.org/2000/svg">
<path d="M26.31 3.31639C26.011 2.2078 25.1299 1.3347 24.0113 1.03841C21.9837 0.5 13.8533 0.5 13.8533 0.5C13.8533 0.5 5.72289 0.5 3.69524 1.03841C2.57661 1.33475 1.69559 2.2078 1.39657 3.31639C0.853271 5.32578 0.853271 9.51819 0.853271 9.51819C0.853271 9.51819 0.853271 13.7106 1.39657 15.72C1.69559 16.8286 2.57661 17.6653 3.69524 17.9616C5.72289 18.5 13.8533 18.5 13.8533 18.5C13.8533 18.5 21.9837 18.5 24.0113 17.9616C25.1299 17.6653 26.011 16.8286 26.31 15.72C26.8533 13.7106 26.8533 9.51819 26.8533 9.51819C26.8533 9.51819 26.8533 5.32578 26.31 3.31639ZM11.1942 13.3246V5.7118L17.9896 9.51828L11.1942 13.3246Z" fill="#fff"/>
</svg>
